name C:\Users\tom_v\MusculoskeletalSpecialization\ResultsSprinting\Case_4\motion.mot
datacolumns 32
datarows 10
range 0.41933438 0.46965451
endheader 
time	pelvis_tilt	pelvis_list	pelvis_rotation	pelvis_tx	pelvis_ty	pelvis_tz	hip_flexion_r	hip_adduction_r	hip_rotation_r	knee_angle_r	ankle_angle_r	subtalar_angle_r	mtp_angle_r	hip_flexion_l	hip_adduction_l	hip_rotation_l	knee_angle_l	ankle_angle_l	subtalar_angle_l	mtp_angle_l	lumbar_extension	lumbar_bending	lumbar_rotation	arm_flex_r	arm_add_r	arm_rot_r	elbow_flex_r	arm_flex_l	arm_add_l	arm_rot_l	elbow_flex_l	
          0.41933438	        -15.70925229	         -1.24211248	         -1.82447157	          1.38559791	          0.82331948	         -0.00173434	         49.20531307	          1.76324987	         -4.57251608	        -51.16174665	         26.56109689	          3.13194706	          1.15961134	         21.05739807	          2.57251798	          4.26886261	        -36.25551578	         19.37886076	          2.09138153	         16.59184422	         -9.40537379	          1.11450070	         -2.13894443	        -18.23990827	        -19.01847575	         -6.95353369	         78.38212899	         -4.49718020	        -38.16783052	         19.15149158	         80.13148602	
          0.42492551	        -15.73896916	         -1.29836955	         -1.82034094	          1.40435481	          0.82509568	         -0.00172577	         50.06228679	          1.97836833	         -4.39765778	        -49.96765718	         26.47220852	          3.18808377	          1.07604365	         19.42357186	          2.29580507	          3.90497252	        -35.49510609	         17.97482530	          2.63595159	         17.97799695	         -9.41303198	          1.37524941	         -2.30430401	        -19.88415415	        -18.94956552	         -7.83649170	         81.96743556	         -5.20331001	        -39.02835883	         19.08715124	         83.93680468	
          0.43051663	        -15.76674535	         -1.35038029	         -1.81473956	          1.42320566	          0.82686114	         -0.00171022	         50.84969251	          2.18589699	         -4.20035641	        -48.71072923	         26.38445376	          3.25815114	          0.99918620	         17.82515593	          2.01905363	          3.53000963	        -34.77285438	         16.42172238	          3.20666259	         19.34645348	         -9.40735471	          1.63307160	         -2.46265796	        -21.41786977	        -18.87765409	         -8.64021512	         85.27550549	         -5.83787341	        -39.79754426	         19.04384119	         87.43911231	
          0.43610776	        -15.79265835	         -1.39627246	         -1.80821422	          1.44213307	          0.82858316	         -0.00168702	         51.56574349	          2.38134392	         -3.98356127	        -47.38643829	         26.30136343	          3.33972557	          0.92870786	         16.28189127	          1.74708902	          3.15450325	        -34.11971517	         14.73094425	          3.80161174	         20.67444274	         -9.39108841	          1.88399563	         -2.61302573	        -22.83285563	        -18.80718159	         -9.36922315	         88.29138800	         -6.40133932	        -40.47492656	         19.02478739	         90.63093402	
          0.44169888	        -15.81674866	         -1.43397340	         -1.80111287	          1.46111415	          0.83022995	         -0.00165663	         52.20970126	          2.56111490	         -3.74859948	        -45.99224363	         26.22373414	          3.43014698	          0.86407757	         14.81576050	          1.48552921	          2.79297021	        -33.57058869	         12.95196378	          4.42685907	         21.87123388	         -9.36827232	          2.12398174	         -2.75379344	        -24.12227089	        -18.74305554	        -10.02696100	         91.00447891	         -6.89619721	        -41.06024552	         19.02825453	         93.50876776	
          0.44729001	        -15.83919652	         -1.45922135	         -1.79177046	          1.48012223	          0.83177708	         -0.00162075	         52.77831404	          2.72023997	         -3.49485360	        -44.52210051	         26.15118500	          3.52674042	          0.80496884	         13.45507010	          1.23847019	          2.44676570	        -33.16980297	         11.18667395	          5.10508617	         22.75018601	         -9.34363800	          2.34641647	         -2.88435283	        -25.27980692	        -18.68794426	        -10.61697445	         93.40554381	         -7.32398784	        -41.55430021	         19.05180541	         96.06964249	
          0.45288113	        -15.86013961	         -1.47068350	         -1.77885704	          1.49914314	          0.83321253	         -0.00158031	         53.26359025	          2.85640314	         -3.22216926	        -42.96438863	         26.08119145	          3.62720942	          0.75081476	         12.21609643	          1.00740932	          2.11946584	        -32.93626442	          9.43689130	          5.82389192	         23.29021958	         -9.32004096	          2.54819060	         -3.00339563	        -26.29979779	        -18.64378583	        -11.14171286	         95.48304114	         -7.68856411	        -41.95469888	         19.09100570	         98.30708415	
          0.45847226	        -15.87957512	         -1.46811350	         -1.76066656	          1.51817178	          0.83452813	         -0.00153419	         53.65645543	          2.96824305	         -2.93127305	        -41.31310700	         26.01201451	          3.72907246	          0.70127410	         11.10724922	          0.79097542	          1.81034117	        -32.87405258	          7.67385772	          6.56662802	         23.53033586	         -9.29851592	          2.72713852	         -3.11031575	        -27.17776907	        -18.61150114	        -11.60280365	         97.22591277	         -7.99612048	        -42.25915536	         19.14070110	        100.21478785	
          0.46406339	        -15.89722706	         -1.45284167	         -1.73533200	          1.53720765	          0.83571267	         -0.00147980	         53.95367433	          3.05635562	         -2.62259917	        -39.58471594	         25.94043676	          3.83038345	          0.65607972	         10.13415209	          0.58737507	          1.51782861	        -32.98476816	          5.88695844	          7.30647018	         23.47866743	         -9.27890564	          2.88250911	         -3.20475974	        -27.91107046	        -18.59190608	        -12.00158976	         98.62591232	         -8.25411275	        -42.46671462	         19.19526682	        101.78896127	
          0.46965451	        -15.91266245	         -1.42682665	         -1.70099923	          1.55625150	          0.83675252	         -0.00141427	         54.15375228	          3.12197190	         -2.29770867	        -37.80481384	         25.86389214	          3.92871693	          0.61515369	          9.30242425	          0.39665871	          1.24297657	        -33.27282423	          4.08836120	          8.00924281	         23.10792327	         -9.26042037	          3.01389806	         -3.28589541	        -28.49861185	        -18.58548682	        -12.33974103	         99.67699809	         -8.46881895	        -42.57780677	         19.25028676	        103.02776393	
